
<svg version="1.0" xmlns="http://www.w3.org/2000/svg"
 width="100.000000pt" height="100.000000pt" viewBox="0 0 100.000000 100.000000"
 preserveAspectRatio="xMidYMid meet">

<g transform="translate(0.000000,100.000000) scale(0.100000,-0.100000)"
fill="#000000" stroke="none">
<path d="M117 802 c-22 -24 -21 -45 1 -65 25 -22 45 -21 67 3 10 11 22 20 26
20 4 0 16 -24 27 -52 34 -90 134 -322 143 -334 6 -7 2 -18 -11 -29 -39 -36
-21 -75 34 -75 19 0 22 -4 19 -24 -6 -28 27 -66 57 -66 30 0 63 38 57 66 -4
24 -3 24 78 24 81 0 82 0 78 -24 -6 -28 27 -66 57 -66 30 0 63 38 57 65 -3 21
0 24 27 27 17 2 30 8 29 13 -2 6 -97 12 -249 15 l-246 5 26 24 c23 22 51 28
248 56 182 26 223 35 235 51 10 14 13 51 11 154 l-3 135 -313 3 -313 2 -11 30
c-7 22 -16 30 -33 30 -12 0 -28 7 -35 15 -17 20 -43 19 -63 -3z m297 -140 c5
-18 6 -35 3 -39 -4 -3 -28 -8 -55 -11 l-49 -4 -16 41 c-10 23 -17 44 -17 47 0
3 28 4 62 2 61 -3 63 -4 72 -36z m156 29 c0 -5 3 -23 6 -40 l7 -31 -66 0 c-60
0 -65 2 -71 24 -3 13 -9 31 -12 40 -5 14 4 16 65 16 39 0 71 -4 71 -9z m154
-23 c3 -17 5 -32 4 -33 -2 -1 -27 -5 -56 -7 -57 -5 -72 6 -72 51 0 19 6 21 59
21 58 0 59 0 65 -32z m136 -4 l0 -35 -52 3 c-52 3 -53 4 -56 36 l-3 32 55 0
56 0 0 -36z m0 -88 c0 -32 -2 -34 -41 -40 -23 -4 -43 -5 -45 -3 -2 2 -7 17
-10 35 -6 30 -5 31 32 35 22 2 45 4 52 5 7 1 12 -11 12 -32z m-261 -23 c8 -27
6 -32 -12 -37 -12 -3 -38 -6 -59 -6 -32 0 -37 4 -47 31 -16 47 -16 48 42 51
61 4 64 2 76 -39z m135 31 c13 -35 6 -51 -25 -58 -55 -11 -79 -7 -79 12 0 9
-3 27 -6 40 -6 21 -3 22 49 22 41 0 56 -4 61 -16z m-286 -33 c7 -21 12 -41 12
-45 0 -3 -24 -6 -54 -6 -52 0 -55 1 -65 31 -19 55 -16 59 42 59 54 0 54 0 65
-39z m412 -71 c0 -31 -3 -34 -51 -44 -23 -5 -27 -2 -33 25 -8 42 -2 49 45 49
37 0 39 -2 39 -30z m-110 -15 c0 -28 -4 -36 -24 -41 -46 -11 -70 -1 -77 33 -7
36 -1 40 64 42 36 1 37 0 37 -34z m-128 -14 c5 -18 7 -35 4 -38 -2 -2 -25 -5
-51 -6 -46 -2 -48 -1 -61 35 -12 36 -12 37 14 41 65 11 85 4 94 -32z m-135
-15 c7 -22 12 -40 11 -41 -2 -1 -22 -5 -45 -9 -37 -5 -44 -3 -57 16 -8 13 -17
33 -20 45 -6 19 -3 22 31 26 61 6 65 4 80 -37z"/>
</g>
</svg>
