  
  <svg fill="none">
  <symbol id="halfcircle" viewBox="0 0 35 51" xmlns="http://www.w3.org/2000/svg">
        <path d="M3.4163 16.3272C3.4163 11.5693 4.49397 6.87739 6.56134 2.63268C6.94989 1.83359 6.66398 0.873212 5.89421 0.433345L5.85756 0.411352C5.00715 -0.0798326 3.92214 0.250067 3.48961 1.13713C2.5439 3.07988 1.78146 5.10326 1.21696 7.17797C0.410542 10.1471 0 13.2261 0 16.3272C0 21.0191 0.916389 25.5717 2.7345 29.8531C4.48664 33.9878 6.98655 37.7047 10.1829 40.9011C13.3719 44.0901 17.0888 46.5973 21.2309 48.3495C24.7572 49.8377 28.4667 50.7248 32.2789 50.996C33.2612 51.062 34.0897 50.2922 34.0897 49.3099V49.2732C34.0897 48.3788 33.4005 47.653 32.5061 47.587C16.2677 46.4214 3.4163 32.8442 3.4163 16.3272Z"/>
    </symbol>
    </svg>
